%
M48
M72
T01C0.02362
T02C0.03150
T03C0.03200
T04C0.03937
T05C0.04000
T06C0.07480
%
T01
X46800Y62904
X46800Y82904
X71800Y62904
X131800Y47904
X151800Y47904
X151800Y30404
X146800Y67904
X144300Y77904
X151800Y87904
X161800Y70404
X181800Y67904
X144300Y107904
X156800Y112904
X121800Y187904
X46800Y127904
T02
X164221Y39203
X168946Y36053
X164221Y32904
X168946Y29754
X164221Y26604
X139674Y22904
X131800Y22904
X123926Y22904
T03
X16800Y12904
X16800Y32904
X36800Y22904
X46800Y22904
X61800Y47904
X71800Y47904
X91800Y47904
X91800Y57904
X91800Y67904
X91800Y77904
X91800Y87904
X91800Y97904
X91800Y107904
X91800Y117904
X91800Y127904
X91800Y137904
X91800Y147904
X91800Y157904
X91800Y167904
X91800Y177904
X101800Y192904
X121800Y177904
X121800Y167904
X121800Y157904
X121800Y147904
X121800Y137904
X121800Y127904
X121800Y117904
X121800Y107904
X121800Y97904
X121800Y87904
X121800Y77904
X121800Y67904
X121800Y57904
X121800Y47904
X96800Y27904
X91800Y20404
X86800Y27904
X26800Y52904
X16800Y52904
X61800Y117904
X61800Y157904
X16800Y167904
X16800Y187904
X141800Y192904
X156800Y167904
X166800Y167904
T04
X116052Y22904
X147548Y22904
T05
X6800Y72904
X6800Y82904
X6800Y92904
X6800Y102904
X6800Y112904
X6800Y122904
X6800Y132904
X6800Y142904
X11800Y197904
X21800Y197904
X31800Y197904
X41800Y197904
X51800Y197904
X61800Y197904
X71800Y102904
X71800Y92904
X71800Y82904
X194300Y82904
X194300Y92904
X194300Y102904
X194300Y112904
X194300Y122904
X194300Y132904
X194300Y142904
X194300Y72904
T06
X184300Y18533
X184300Y47274
M30
