G75*
%MOIN*%
%OFA0B0*%
%FSLAX25Y25*%
%IPPOS*%
%LPD*%
%AMOC8*
5,1,8,0,0,1.08239X$1,22.5*
%
%ADD10C,0.00000*%
%ADD11OC8,0.07100*%
%ADD12C,0.07100*%
%ADD13C,0.08200*%
%ADD14R,0.08200X0.08200*%
%ADD15OC8,0.06000*%
%ADD16C,0.06000*%
%ADD17C,0.06000*%
%ADD18C,0.05950*%
%ADD19C,0.06737*%
%ADD20C,0.12020*%
%ADD21OC8,0.04762*%
D10*
X0001800Y0007904D02*
X0001800Y0204754D01*
X0198650Y0204754D01*
X0198650Y0007904D01*
X0001800Y0007904D01*
D11*
X0026800Y0052904D03*
X0061800Y0047904D03*
X0166800Y0167904D03*
D12*
X0156800Y0167904D03*
X0071800Y0047904D03*
X0016800Y0052904D03*
D13*
X0006800Y0082904D03*
X0006800Y0092904D03*
X0006800Y0102904D03*
X0006800Y0112904D03*
X0006800Y0122904D03*
X0006800Y0132904D03*
X0006800Y0142904D03*
X0011800Y0197904D03*
X0021800Y0197904D03*
X0031800Y0197904D03*
X0041800Y0197904D03*
X0051800Y0197904D03*
X0061800Y0197904D03*
X0071800Y0102904D03*
X0071800Y0092904D03*
X0071800Y0082904D03*
X0194300Y0082904D03*
X0194300Y0092904D03*
X0194300Y0102904D03*
X0194300Y0112904D03*
X0194300Y0122904D03*
X0194300Y0132904D03*
X0194300Y0142904D03*
D14*
X0194300Y0072904D03*
X0006800Y0072904D03*
D15*
X0036800Y0022904D03*
X0046800Y0022904D03*
X0086800Y0027904D03*
X0091800Y0020404D03*
X0096800Y0027904D03*
X0061800Y0117904D03*
X0061800Y0157904D03*
X0101800Y0192904D03*
X0141800Y0192904D03*
D16*
X0124400Y0177904D02*
X0119200Y0177904D01*
X0119200Y0167904D02*
X0124400Y0167904D01*
X0124400Y0157904D02*
X0119200Y0157904D01*
X0119200Y0147904D02*
X0124400Y0147904D01*
X0124400Y0137904D02*
X0119200Y0137904D01*
X0119200Y0127904D02*
X0124400Y0127904D01*
X0124400Y0117904D02*
X0119200Y0117904D01*
X0119200Y0107904D02*
X0124400Y0107904D01*
X0124400Y0097904D02*
X0119200Y0097904D01*
X0119200Y0087904D02*
X0124400Y0087904D01*
X0124400Y0077904D02*
X0119200Y0077904D01*
X0119200Y0067904D02*
X0124400Y0067904D01*
X0124400Y0057904D02*
X0119200Y0057904D01*
X0119200Y0047904D02*
X0124400Y0047904D01*
X0094400Y0047904D02*
X0089200Y0047904D01*
X0089200Y0057904D02*
X0094400Y0057904D01*
X0094400Y0067904D02*
X0089200Y0067904D01*
X0089200Y0077904D02*
X0094400Y0077904D01*
X0094400Y0087904D02*
X0089200Y0087904D01*
X0089200Y0097904D02*
X0094400Y0097904D01*
X0094400Y0107904D02*
X0089200Y0107904D01*
X0089200Y0117904D02*
X0094400Y0117904D01*
X0094400Y0127904D02*
X0089200Y0127904D01*
X0089200Y0137904D02*
X0094400Y0137904D01*
X0094400Y0147904D02*
X0089200Y0147904D01*
X0089200Y0157904D02*
X0094400Y0157904D01*
X0094400Y0167904D02*
X0089200Y0167904D01*
X0089200Y0177904D02*
X0094400Y0177904D01*
D17*
X0016800Y0187904D03*
X0016800Y0167904D03*
X0016800Y0032904D03*
X0016800Y0012904D03*
D18*
X0123926Y0022904D03*
X0131800Y0022904D03*
X0139674Y0022904D03*
X0164221Y0026604D03*
X0168946Y0029754D03*
X0164221Y0032904D03*
X0168946Y0036053D03*
X0164221Y0039203D03*
D19*
X0147548Y0022904D03*
X0116052Y0022904D03*
D20*
X0184300Y0018533D03*
X0184300Y0047274D03*
D21*
X0181800Y0067904D03*
X0161800Y0070404D03*
X0146800Y0067904D03*
X0144300Y0077904D03*
X0151800Y0087904D03*
X0144300Y0107904D03*
X0156800Y0112904D03*
X0151800Y0047904D03*
X0151800Y0030404D03*
X0131800Y0047904D03*
X0071800Y0062904D03*
X0046800Y0062904D03*
X0046800Y0082904D03*
X0046800Y0127904D03*
X0121800Y0187904D03*
M02*
